<svg width="1200" height="630" viewBox="0 0 1200 630" fill="none" xmlns="http://www.w3.org/2000/svg">
  <defs>
    <linearGradient id="bg" x1="0" y1="0" x2="1" y2="1">
      <stop offset="0%" stop-color="#07080d"/>
      <stop offset="100%" stop-color="#172033"/>
    </linearGradient>
    <linearGradient id="panel" x1="0" y1="0" x2="1" y2="1">
      <stop offset="0%" stop-color="#111827"/>
      <stop offset="100%" stop-color="#0f172a"/>
    </linearGradient>
    <linearGradient id="accent" x1="0" y1="0" x2="1" y2="1">
      <stop offset="0%" stop-color="#a78bfa"/>
      <stop offset="100%" stop-color="#22d3ee"/>
    </linearGradient>
  </defs>

  <rect width="1200" height="630" rx="36" fill="url(#bg)"/>
  <rect x="68" y="72" width="1064" height="486" rx="30" fill="#020617" opacity="0.72"/>
  <rect x="94" y="98" width="1012" height="434" rx="24" stroke="#ffffff" stroke-opacity="0.08"/>

  <circle cx="167" cy="170" r="48" fill="#22d3ee" opacity="0.14"/>
  <circle cx="167" cy="170" r="27" fill="#22d3ee"/>
  <path d="M167 123v94M120 170h94" stroke="#020617" stroke-width="10" stroke-linecap="round"/>
  <path d="M130 210c31 27 73 27 104 0" stroke="#a3e635" stroke-width="8" stroke-linecap="round"/>

  <text x="245" y="178" fill="#f8fafc" font-size="74" font-family="Arial, Helvetica, sans-serif" font-weight="700">
    PullScope
  </text>
  <text x="245" y="242" fill="#cbd5e1" font-size="31" font-family="Arial, Helvetica, sans-serif">
    Client-side AI PR review
  </text>

  <g font-family="Arial, Helvetica, sans-serif" font-size="28" fill="#e2e8f0">
    <text x="120" y="340">Local PR risk scoring before AI</text>
    <text x="120" y="392">BYOK model review</text>
    <text x="120" y="444">Browser-only GitHub and model secrets</text>
  </g>

  <g>
    <rect x="760" y="170" width="250" height="248" rx="22" fill="url(#panel)" stroke="#ffffff" stroke-opacity="0.10"/>
    <rect x="792" y="210" width="110" height="20" rx="10" fill="#22d3ee"/>
    <rect x="792" y="256" width="172" height="16" rx="8" fill="#64748b"/>
    <rect x="792" y="298" width="150" height="16" rx="8" fill="#64748b"/>
    <rect x="792" y="340" width="120" height="16" rx="8" fill="#64748b"/>
    <circle cx="946" cy="344" r="42" fill="#a3e635"/>
    <text x="917" y="356" fill="#020617" font-size="34" font-family="Arial, Helvetica, sans-serif" font-weight="700">
      82
    </text>
  </g>

  <text x="120" y="522" fill="#67e8f9" font-size="28" font-family="Arial, Helvetica, sans-serif">
    yudin-s.github.io/pullscope
  </text>
</svg>
